<svg xmlns="http://www.w3.org/2000/svg" width="1080" height="1920" viewBox="0 0 1080 1920">
  <defs>
    <style>
      .bg { fill: #0f172a; }
      .panel { fill: #f8fafc; stroke: #cbd5e1; stroke-width: 3; }
      .muted { fill: #94a3b8; font-family: Arial, "Microsoft YaHei", sans-serif; }
      .text { fill: #f8fafc; font-family: Arial, "Microsoft YaHei", sans-serif; font-weight: 700; }
      .dark { fill: #0f172a; font-family: Arial, "Microsoft YaHei", sans-serif; font-weight: 700; }
      .small { font-size: 30px; }
      .medium { font-size: 44px; }
      .large { font-size: 64px; }
      .accent { fill: #f59e0b; }
      .blue { fill: #38bdf8; }
      .green { fill: #34d399; }
      .pink { fill: #fb7185; }
      .line { stroke: #38bdf8; stroke-width: 5; fill: none; stroke-linecap: round; }
      .softline { stroke: #94a3b8; stroke-width: 3; fill: none; stroke-linecap: round; opacity: .65; }
      .hotline { stroke: #f59e0b; stroke-width: 8; fill: none; stroke-linecap: round; }
      .token { fill: #1e293b; stroke: #38bdf8; stroke-width: 3; }
    </style>
  </defs>
  <rect class="bg" width="1080" height="1920"/>
  <text x="80" y="128" class="text large">Positional Encoding = 位置坐标</text>
  
  <path d="M 120.0 430.0 L 130.0 443.4 L 140.0 455.9 L 150.0 466.8 L 160.0 475.4 L 170.0 481.2 L 180.0 483.9 L 190.0 483.1 L 200.0 479.1 L 210.0 472.0 L 220.0 462.3 L 230.0 450.6 L 240.0 437.6 L 250.0 424.2 L 260.0 411.1 L 270.0 399.1 L 280.0 389.1 L 290.0 381.7 L 300.0 377.2 L 310.0 376.0 L 320.0 378.2 L 330.0 383.6 L 340.0 391.9 L 350.0 402.6 L 360.0 414.9 L 370.0 428.2 L 380.0 441.6 L 390.0 454.3 L 400.0 465.5 L 410.0 474.4 L 420.0 480.7 L 430.0 483.7 L 440.0 483.4 L 450.0 479.8 L 460.0 473.1 L 470.0 463.7 L 480.0 452.3 L 490.0 439.4 L 500.0 425.9 L 510.0 412.7 L 520.0 400.6 L 530.0 390.3 L 540.0 382.5 L 550.0 377.6 L 560.0 376.0 L 570.0 377.7 L 580.0 382.7 L 590.0 390.7 L 600.0 401.0 L 610.0 413.2 L 620.0 426.4 L 630.0 439.9 L 640.0 452.7 L 650.0 464.1 L 660.0 473.4 L 670.0 480.0 L 680.0 483.5 L 690.0 483.7 L 700.0 480.5 L 710.0 474.2 L 720.0 465.1 L 730.0 453.9 L 740.0 441.1 L 750.0 427.7 L 760.0 414.5 L 770.0 402.1 L 780.0 391.6 L 790.0 383.4 L 800.0 378.1 L 810.0 376.0 L 820.0 377.3 L 830.0 381.9 L 840.0 389.4 L 850.0 399.5 L 860.0 411.5 L 870.0 424.6 L 880.0 438.1 L 890.0 451.1 L 900.0 462.7 L 910.0 472.3" class="line"/>
<path d="M 120.0 600.0 L 130.0 608.0 L 140.0 615.7 L 150.0 623.0 L 160.0 629.7 L 170.0 635.5 L 180.0 640.4 L 190.0 644.1 L 200.0 646.7 L 210.0 647.9 L 220.0 647.8 L 230.0 646.4 L 240.0 643.6 L 250.0 639.7 L 260.0 634.7 L 270.0 628.7 L 280.0 621.9 L 290.0 614.6 L 300.0 606.8 L 310.0 598.8 L 320.0 590.9 L 330.0 583.2 L 340.0 575.9 L 350.0 569.4 L 360.0 563.7 L 370.0 559.0 L 380.0 555.4 L 390.0 553.1 L 400.0 552.1 L 410.0 552.4 L 420.0 554.0 L 430.0 556.9 L 440.0 561.0 L 450.0 566.1 L 460.0 572.2 L 470.0 579.1 L 480.0 586.6 L 490.0 594.4 L 500.0 602.4 L 510.0 610.3 L 520.0 618.0 L 530.0 625.1 L 540.0 631.5 L 550.0 637.1 L 560.0 641.6 L 570.0 645.0 L 580.0 647.2 L 590.0 648.0 L 600.0 647.5 L 610.0 645.7 L 620.0 642.6 L 630.0 638.3 L 640.0 633.0 L 650.0 626.8 L 660.0 619.8 L 670.0 612.3 L 680.0 604.4 L 690.0 596.4 L 700.0 588.5 L 710.0 580.9 L 720.0 573.9 L 730.0 567.6 L 740.0 562.1 L 750.0 557.8 L 760.0 554.6 L 770.0 552.6 L 780.0 552.0 L 790.0 552.7 L 800.0 554.7 L 810.0 558.0 L 820.0 562.4 L 830.0 567.9 L 840.0 574.2 L 850.0 581.3 L 860.0 588.9 L 870.0 596.8 L 880.0 604.8 L 890.0 612.7 L 900.0 620.2 L 910.0 627.1" class="hotline"/>
<path d="M 120.0 770.0 L 130.0 775.2 L 140.0 780.4 L 150.0 785.4 L 160.0 790.1 L 170.0 794.6 L 180.0 798.6 L 190.0 802.2 L 200.0 805.3 L 210.0 807.9 L 220.0 809.9 L 230.0 811.2 L 240.0 811.9 L 250.0 811.9 L 260.0 811.3 L 270.0 810.1 L 280.0 808.2 L 290.0 805.7 L 300.0 802.7 L 310.0 799.1 L 320.0 795.1 L 330.0 790.7 L 340.0 786.0 L 350.0 781.1 L 360.0 775.9 L 370.0 770.7 L 380.0 765.5 L 390.0 760.3 L 400.0 755.3 L 410.0 750.5 L 420.0 746.0 L 430.0 741.9 L 440.0 738.2 L 450.0 735.0 L 460.0 732.4 L 470.0 730.4 L 480.0 728.9 L 490.0 728.2 L 500.0 728.0 L 510.0 728.6 L 520.0 729.7 L 530.0 731.5 L 540.0 733.9 L 550.0 736.9 L 560.0 740.4 L 570.0 744.3 L 580.0 748.7 L 590.0 753.3 L 600.0 758.3 L 610.0 763.4 L 620.0 768.6 L 630.0 773.9 L 640.0 779.0 L 650.0 784.1 L 660.0 788.9 L 670.0 793.4 L 680.0 797.6 L 690.0 801.3 L 700.0 804.6 L 710.0 807.3 L 720.0 809.4 L 730.0 810.9 L 740.0 811.8 L 750.0 812.0 L 760.0 811.6 L 770.0 810.5 L 780.0 808.7 L 790.0 806.4 L 800.0 803.5 L 810.0 800.1 L 820.0 796.2 L 830.0 791.9 L 840.0 787.3 L 850.0 782.4 L 860.0 777.3 L 870.0 772.1 L 880.0 766.8 L 890.0 761.6 L 900.0 756.6 L 910.0 751.7" class="line"/>
<path d="M 120.0 940.0 L 130.0 943.6 L 140.0 947.2 L 150.0 950.6 L 160.0 954.0 L 170.0 957.3 L 180.0 960.3 L 190.0 963.2 L 200.0 965.8 L 210.0 968.2 L 220.0 970.3 L 230.0 972.1 L 240.0 973.6 L 250.0 974.7 L 260.0 975.5 L 270.0 975.9 L 280.0 976.0 L 290.0 975.7 L 300.0 975.1 L 310.0 974.1 L 320.0 972.7 L 330.0 971.1 L 340.0 969.1 L 350.0 966.8 L 360.0 964.3 L 370.0 961.5 L 380.0 958.6 L 390.0 955.4 L 400.0 952.1 L 410.0 948.6 L 420.0 945.1 L 430.0 941.5 L 440.0 937.9 L 450.0 934.3 L 460.0 930.8 L 470.0 927.4 L 480.0 924.1 L 490.0 920.9 L 500.0 918.0 L 510.0 915.2 L 520.0 912.8 L 530.0 910.5 L 540.0 908.6 L 550.0 907.0 L 560.0 905.7 L 570.0 904.8 L 580.0 904.2 L 590.0 904.0 L 600.0 904.1 L 610.0 904.6 L 620.0 905.5 L 630.0 906.7 L 640.0 908.2 L 650.0 910.0 L 660.0 912.2 L 670.0 914.6 L 680.0 917.3 L 690.0 920.2 L 700.0 923.3 L 710.0 926.5 L 720.0 929.9 L 730.0 933.4 L 740.0 937.0 L 750.0 940.6 L 760.0 944.2 L 770.0 947.7 L 780.0 951.2 L 790.0 954.6 L 800.0 957.8 L 810.0 960.8 L 820.0 963.7 L 830.0 966.2 L 840.0 968.6 L 850.0 970.6 L 860.0 972.4 L 870.0 973.8 L 880.0 974.8 L 890.0 975.6 L 900.0 975.9 L 910.0 976.0" class="hotline"/>
  <rect x="100" y="1180" width="880" height="180" rx="32" class="panel"/>
  <text x="140" y="1260" class="dark medium">PE(pos, 2i) = sin(pos / 10000^(2i / d_model))</text>
  <text x="140" y="1330" class="dark medium">PE(pos, 2i+1) = cos(pos / 10000^(2i / d_model))</text>
  <text x="120" y="1530" class="text medium">给每个词贴一个能被模型识别的位置坐标。</text>
  <text x="80" y="1830" class="muted small">EP01 · Attention Is All You Need · Formal Visual Asset</text>
</svg>
